<svg xmlns="http://www.w3.org/2000/svg" viewBox="0 0 100 100" width="100" height="100">
  <!-- Background gradient -->
  <defs>
    <linearGradient id="bg" x1="0%" y1="0%" x2="100%" y2="100%">
      <stop offset="0%" style="stop-color:#667eea;stop-opacity:1" />
      <stop offset="100%" style="stop-color:#764ba2;stop-opacity:1" />
    </linearGradient>
    <linearGradient id="tower" x1="0%" y1="0%" x2="100%" y2="100%">
      <stop offset="0%" style="stop-color:#ffffff;stop-opacity:1" />
      <stop offset="100%" style="stop-color:#f1f5f9;stop-opacity:1" />
    </linearGradient>
  </defs>

  <!-- Background circle -->
  <circle cx="50" cy="50" r="48" fill="url(#bg)" stroke="#4c1d95" stroke-width="2"/>

  <!-- Communication tower -->
  <g transform="translate(50,50)">
    <!-- Tower base -->
    <rect x="-2" y="15" width="4" height="25" fill="url(#tower)" stroke="#3730a3" stroke-width="0.5"/>

    <!-- Tower structure -->
    <polygon points="-8,15 8,15 6,5 -6,5" fill="url(#tower)" stroke="#3730a3" stroke-width="0.5"/>
    <polygon points="-6,5 6,5 4,-5 -4,-5" fill="url(#tower)" stroke="#3730a3" stroke-width="0.5"/>
    <polygon points="-4,-5 4,-5 2,-15 -2,-15" fill="url(#tower)" stroke="#3730a3" stroke-width="0.5"/>

    <!-- Antenna -->
    <line x1="0" y1="-15" x2="0" y2="-25" stroke="#ffffff" stroke-width="1.5" stroke-linecap="round"/>

    <!-- Signal waves -->
    <g stroke="#10b981" stroke-width="1.5" fill="none" opacity="0.8">
      <circle cx="0" cy="0" r="12" stroke-dasharray="2,2"/>
      <circle cx="0" cy="0" r="18" stroke-dasharray="3,3"/>
      <circle cx="0" cy="0" r="24" stroke-dasharray="4,4"/>
    </g>

    <!-- Location pin -->
    <g transform="translate(15,-20)">
      <circle cx="0" cy="0" r="6" fill="#ef4444" stroke="#ffffff" stroke-width="1"/>
      <circle cx="0" cy="0" r="2" fill="#ffffff"/>
    </g>
  </g>
</svg>